<svg xmlns="http://www.w3.org/2000/svg" viewBox="0 0 284 62"><path transform="translate(2 46)" d="M21.26 0L14.54 0L4.80-27.79Q4.32-29.18 3.94-29.62Q3.55-30.05 2.59-30.24L2.59-30.24L0.72-30.58L0.72-33.65L15.36-33.65L15.36-30.62L12.82-30.29Q12-30.19 11.71-29.76Q11.42-29.33 11.86-27.89L11.86-27.89L19.10-5.81L19.30-5.81L26.64-27.60Q27.07-28.90 26.83-29.45Q26.59-30 25.54-30.19L25.54-30.19L23.18-30.67L23.28-33.65L35.28-33.65L35.28-30.67L33.02-30.29Q32.21-30.14 31.82-29.69Q31.44-29.23 30.86-27.65L30.86-27.65L21.26 0ZM49.92 0.67L49.92 0.67Q46.03 0.67 43.25-0.82Q40.46-2.30 38.98-5.06Q37.49-7.82 37.49-11.76L37.49-11.76Q37.49-16.08 39.12-19.08Q40.75-22.08 43.73-23.62Q46.70-25.15 50.74-25.15L50.74-25.15Q54.38-25.15 57.10-23.74Q59.81-22.32 61.32-19.58Q62.83-16.85 62.83-12.82L62.83-12.82Q62.83-8.64 61.27-5.59Q59.71-2.54 56.83-0.94Q53.95 0.67 49.92 0.67ZM50.59-3.02L50.59-3.02Q52.46-3.02 53.66-3.98Q54.86-4.94 55.46-6.94Q56.06-8.93 56.06-11.76L56.06-11.76Q56.06-14.26 55.63-16.10Q55.20-17.95 54.41-19.18Q53.62-20.40 52.49-21Q51.36-21.60 49.97-21.60L49.97-21.60Q48.14-21.60 46.90-20.71Q45.65-19.82 44.98-17.98Q44.30-16.13 44.30-13.25L44.30-13.25Q44.30-9.94 45.02-7.66Q45.74-5.38 47.14-4.20Q48.53-3.02 50.59-3.02ZM81.46 0L66.72 0L66.72-2.93L68.78-3.31Q69.55-3.46 69.79-3.91Q70.03-4.37 70.03-5.62L70.03-5.62L70.03-17.90Q70.03-19.54 69.77-20.14Q69.50-20.74 68.45-20.88L68.45-20.88L66.29-21.22L66.67-24.29L74.59-24.82L75.31-24.43L75.74-20.06L75.94-20.06Q77.18-22.46 79.10-23.81Q81.02-25.15 83.33-25.15L83.33-25.15Q85.78-25.15 87.24-23.81Q88.70-22.46 88.70-20.16L88.70-20.16Q88.70-18.77 88.27-17.78Q87.84-16.80 86.98-16.30Q86.11-15.79 84.91-15.79L84.91-15.79Q83.28-15.79 82.46-16.44Q81.65-17.09 81.65-18.10L81.65-18.10Q81.65-18.53 81.74-18.89Q81.84-19.25 82.03-19.75Q82.22-20.26 82.56-20.93L82.56-20.93Q81.50-21.41 80.42-21.07Q79.34-20.74 78.43-19.80Q77.52-18.86 76.97-17.52Q76.42-16.18 76.42-14.54L76.42-14.54L76.42-5.52Q76.42-4.37 76.63-3.94Q76.85-3.50 77.66-3.41L77.66-3.41L81.46-2.88L81.46 0ZM100.85 0.67L100.85 0.67Q98.50 0.67 96.91-0.12Q95.33-0.91 94.54-2.54Q93.74-4.18 93.74-6.67L93.74-6.67L93.74-20.78L90.14-20.78L90.14-23.90Q92.11-24.14 93.29-25.08Q94.46-26.02 95.09-27.82Q95.71-29.62 95.95-32.45L95.95-32.45L99.36-32.88L100.13-32.50L100.13-24.48L107.18-24.48L107.18-20.78L100.13-20.78L100.13-7.58Q100.13-5.71 100.82-4.75Q101.52-3.79 103.20-3.79L103.20-3.79Q104.30-3.79 105.34-4.15Q106.37-4.51 107.42-5.18L107.42-5.18L108.82-2.78Q107.28-1.20 105.26-0.26Q103.25 0.67 100.85 0.67ZM122.74 0.67L122.74 0.67Q118.90 0.67 116.18-0.86Q113.47-2.40 112.03-5.21Q110.59-8.02 110.59-11.76L110.59-11.76Q110.59-15.94 112.20-18.94Q113.81-21.94 116.64-23.54Q119.47-25.15 123.22-25.15L123.22-25.15Q126.14-25.15 128.35-24.10Q130.56-23.04 131.76-21.02Q132.96-19.01 132.96-16.22L132.96-16.22Q132.96-15.12 132.82-13.92Q132.67-12.72 132.38-11.52L132.38-11.52L117.31-11.52Q117.41-9.17 118.30-7.46Q119.18-5.76 120.72-4.90Q122.26-4.03 124.27-4.03L124.27-4.03Q126.34-4.03 128.06-4.75Q129.79-5.47 131.28-6.77L131.28-6.77L133.30-4.51Q131.52-2.16 128.76-0.74Q126 0.67 122.74 0.67ZM117.31-14.83L117.31-14.83L126.62-14.83Q126.72-15.36 126.74-15.91Q126.77-16.46 126.77-17.09L126.77-17.09Q126.77-19.44 125.76-20.69Q124.75-21.94 122.74-21.94L122.74-21.94Q121.10-21.94 119.95-21.10Q118.80-20.26 118.15-18.67Q117.50-17.09 117.31-14.83ZM145.87 0L135.07 0L135.07-2.88L136.70-3.22Q137.18-3.36 137.54-3.50Q137.90-3.65 138.34-4.01Q138.77-4.37 139.44-5.04L139.44-5.04L145.20-11.81L139.54-18.67Q138.58-19.87 137.98-20.38Q137.38-20.88 136.46-21.07L136.46-21.07L134.83-21.41L135.36-24.48L148.22-24.48L148.22-21.60L146.54-21.31Q145.87-21.17 145.73-20.74Q145.58-20.30 146.35-19.39L146.35-19.39L149.66-15.26L152.88-19.30Q153.60-20.16 153.60-20.57Q153.60-20.98 152.64-21.22L152.64-21.22L151.06-21.60L151.58-24.48L161.62-24.48L161.62-21.55L159.98-21.22Q159.36-21.12 158.95-20.90Q158.54-20.69 158.14-20.30Q157.73-19.92 157.15-19.20L157.15-19.20L151.78-12.82L157.92-5.47Q158.54-4.75 159.05-4.30Q159.55-3.84 160.08-3.58Q160.61-3.31 161.18-3.17L161.18-3.17L162.62-2.93L162.62 0L148.66 0L148.66-2.88L150.43-3.12Q151.34-3.22 151.46-3.74Q151.58-4.27 150.82-5.14L150.82-5.14L147.31-9.36L143.95-5.14Q143.57-4.61 143.40-4.25Q143.23-3.89 143.40-3.65Q143.57-3.41 144.19-3.22L144.19-3.22L145.87-2.83L145.87 0ZM180.72 0L164.98 0L164.98-2.98L167.33-3.36Q168.24-3.50 168.53-3.96Q168.82-4.42 168.82-5.81L168.82-5.81L168.82-28.08Q168.82-29.28 168.50-29.74Q168.19-30.19 167.23-30.34L167.23-30.34L164.98-30.67L164.98-33.65L189.26-33.65L190.90-24.48L187.44-23.71Q186.77-25.73 186.14-27.02Q185.52-28.32 184.75-29.04Q183.98-29.76 182.90-30Q181.82-30.24 180.19-30.24L180.19-30.24L175.54-30.24L175.54-17.90L178.85-17.90Q180.34-17.90 181.03-18.12Q181.73-18.34 182.06-19.15Q182.40-19.97 182.74-21.65L182.74-21.65L185.57-21.94L185.57-10.18L182.74-9.70Q182.45-11.76 182.09-12.74Q181.73-13.73 180.98-14.02Q180.24-14.30 178.75-14.30L178.75-14.30L175.54-14.30L175.54-5.81Q175.54-4.51 175.85-3.98Q176.16-3.46 177.36-3.36L177.36-3.36L180.72-2.98L180.72 0ZM207.89 0L193.87 0L193.87-2.93L196.27-3.31Q197.18-3.46 197.45-3.91Q197.71-4.37 197.71-5.71L197.71-5.71L197.71-30.10Q197.71-31.78 197.35-32.30Q196.99-32.83 195.74-33.02L195.74-33.02L193.87-33.31L194.16-36.43L203.42-36.82L204.05-36.24L204.05-5.57Q204.05-4.56 204.31-4.03Q204.58-3.50 205.54-3.31L205.54-3.31L207.89-2.88L207.89 0ZM223.01 0.67L223.01 0.67Q219.12 0.67 216.34-0.82Q213.55-2.30 212.06-5.06Q210.58-7.82 210.58-11.76L210.58-11.76Q210.58-16.08 212.21-19.08Q213.84-22.08 216.82-23.62Q219.79-25.15 223.82-25.15L223.82-25.15Q227.47-25.15 230.18-23.74Q232.90-22.32 234.41-19.58Q235.92-16.85 235.92-12.82L235.92-12.82Q235.92-8.64 234.36-5.59Q232.80-2.54 229.92-0.94Q227.04 0.67 223.01 0.67ZM223.68-3.02L223.68-3.02Q225.55-3.02 226.75-3.98Q227.95-4.94 228.55-6.94Q229.15-8.93 229.15-11.76L229.15-11.76Q229.15-14.26 228.72-16.10Q228.29-17.95 227.50-19.18Q226.70-20.40 225.58-21Q224.45-21.60 223.06-21.60L223.06-21.60Q221.23-21.60 219.98-20.71Q218.74-19.82 218.06-17.98Q217.39-16.13 217.39-13.25L217.39-13.25Q217.39-9.94 218.11-7.66Q218.83-5.38 220.22-4.20Q221.62-3.02 223.68-3.02ZM254.06 0L247.34 0L241.63-18.53Q241.39-19.34 241.13-19.85Q240.86-20.35 240.50-20.62Q240.14-20.88 239.47-21.02L239.47-21.02L237.79-21.41L238.27-24.48L250.85-24.48L250.85-21.55L248.78-21.22Q248.02-21.12 247.87-20.64Q247.73-20.16 248.06-18.86L248.06-18.86L251.66-5.81L251.90-5.81L256.75-24.48L263.47-24.48L268.37-5.90L268.61-5.90L272.11-18.53Q272.50-19.82 272.21-20.38Q271.92-20.93 270.96-21.12L270.96-21.12L269.23-21.55L269.71-24.48L279.60-24.48L279.60-21.50L277.92-21.17Q277.01-20.98 276.50-20.42Q276.00-19.87 275.52-18.29L275.52-18.29L270.05 0L263.90 0L259.01-18.48L258.82-18.48L254.06 0Z" fill="#201e1d"/></svg>